<svg xmlns="http://www.w3.org/2000/svg" viewBox="0 0 512 512" width="${this.cornerSize}" height="${this.cornerSize}">
    <defs>
        <linearGradient id="handlerGradient" x1="0%" y1="0%" x2="100%" y2="100%">
            <stop offset="0%" stop-opacity="1" stop-color="rgb(128, 202, 255)"></stop>
            <stop offset="100%" stop-opacity="1" stop-color="rgb(27, 147, 235)"></stop>
        </linearGradient>
    </defs>
    <g class="layer" style="pointer-events:all">
        <circle cx="256" cy="256" fill="url(#handlerGradient)" stroke="#3689d5" stroke-width="1" r="254" id="svg_1" transform="matrix(1 0 0 1 0 0)"></circle>
        <path fill="#ffffff" d="M227.23087881321592,240.98664761414616 L89.26435522892945,240.98664761414616 C84.69829896494593,240.98664761414616 81,237.58777854764608 81,233.3914094767158 L81,106.59523813743037 C81,102.3988690665001 84.69829896494593,99 89.26435522892945,99 L122.32177614464727,99 C126.88783240863079,99 130.58613137357673,102.3988690665001 130.58613137357673,106.59523813743037 L130.58613137357673,156.0339090469875 C162.1077596092518,123.8617461698554 207.89917454021176,103.7280357405504 258.80760275041723,104.06982145673477 C353.0901219871207,104.69642860307277 428.52991130186507,174.7181948650662 428.33018938383265,261.37353264803215 C428.13046746580017,347.90861249382215 351.7402772997289,418.0000017720754 257.5335146526239,418.0000017720754 C213.39497076744985,418.0000017720754 173.17510865332653,402.6133151786643 142.85869888853696,377.35281900659385 C139.34634791624194,374.4286523236832 139.18794777435414,369.40946578786463 142.54189860476134,366.3270649770908 L165.9300239026317,344.8325410481628 C169.0153831880987,341.9969854768555 173.9671093627656,341.8450807141069 177.22464271550194,344.497084697093 C198.6017749076661,361.883850666694 226.71435661140782,372.42857294749314 257.5335146526239,372.42857294749314 C324.52300074578795,372.42857294749314 378.7440580102559,322.60381076594996 378.7440580102559,261.0317469318478 C378.7440580102559,199.46601246286014 324.53677467116944,149.63492091620242 257.5335146526239,149.63492091620242 C217.2516698742836,149.63492091620242 181.58409009876223,167.66095276237053 159.55269645097448,195.41521878956397 L227.23087881321592,195.41521878956397 C231.79693507719944,195.41521878956397 235.49523404214537,198.8204172211786 235.49523404214537,203.01045692699435 L235.49523404214537,233.3914094767158 C235.49523404214537,237.58777854764608 231.79693507719944,240.98664761414616 227.23087881321592,240.98664761414616 z" id="svg_3"></path>
    </g>
</svg>
