<svg xmlns="http://www.w3.org/2000/svg" viewBox="0 0 512 512" width="${this.cornerSize}" height="${this.cornerSize}">
    <defs>
        <linearGradient id="handlerGradient" x1="0%" y1="0%" x2="100%" y2="100%">
            <stop offset="0%" stop-opacity="1" stop-color="rgb(128, 202, 255)"></stop>
            <stop offset="100%" stop-opacity="1" stop-color="rgb(27, 147, 235)"></stop>
        </linearGradient>
    </defs>
    <g class="layer" style="pointer-events:all">
        <circle cx="256" cy="256" fill="url(#handlerGradient)" stroke="#3689d5" stroke-width="1" r="254" id="svg_1" transform="matrix(1 0 0 1 0 0)"></circle>
        <path fill="#ffffff" d="M378.6160172852571,270.75521671153206 L351.24197676713686,298.0426589588177 L206.30328203732927,153.5624804035706 L233.67732255544948,126.27503815628504 C246.38519767469964,113.60736462914477 237.38378613189744,91.94999950503264 219.41458176353973,91.94999950503264 L117.1212298611629,91.94999950503264 C105.98502977319565,91.94999950503264 96.94999951314678,100.95644728391873 96.94999951314678,112.05741780208066 L96.94999951314678,214.0271628409854 C96.94999951314678,231.93952130727234 118.67609553382248,240.91245672233 131.38397065307265,228.24478319518977 L158.7580111711929,200.95734094790419 L303.69670590100054,345.4375195031513 L276.32266538288025,372.7249617504368 C263.6147902636301,385.3926352775771 272.6162018064323,407.05000040168926 290.58540617479,407.05000040168926 L392.8787580771668,407.05000040168926 C404.0149581651341,407.05000040168926 413.04998842518296,398.0435526228032 413.04998842518296,386.94258210464125 L413.04998842518296,284.9728370657365 C413.04998842518296,267.0604785994495 391.32389240450726,258.08754318439185 378.6160172852571,270.75521671153206 z"></path>
    </g>
</svg>
